<mxfile host="app.diagrams.net" modified="2024-05-16T17:22:05.890Z" agent="Mozilla/5.0 (Windows NT 10.0; Win64; x64; rv:125.0) Gecko/20100101 Firefox/125.0" etag="vJqCbazEFLCVBGCcZJgu" version="24.4.3" type="device">
  <diagram name="Sivu-1" id="XjziBoeQB1M-8xvojqmM">
    <mxGraphModel dx="734" dy="781" grid="1" gridSize="10" guides="1" tooltips="1" connect="1" arrows="1" fold="1" page="1" pageScale="1" pageWidth="1169" pageHeight="827" math="0" shadow="0">
      <root>
        <mxCell id="0" />
        <mxCell id="1" parent="0" />
        <mxCell id="AoIM3a7iJawQwg-zqPbs-1" value="User" style="shape=umlActor;verticalLabelPosition=bottom;verticalAlign=top;html=1;outlineConnect=0;" vertex="1" parent="1">
          <mxGeometry x="90" y="330" width="30" height="60" as="geometry" />
        </mxCell>
        <mxCell id="AoIM3a7iJawQwg-zqPbs-5" value="" style="group" vertex="1" connectable="0" parent="1">
          <mxGeometry x="230" y="110" width="380" height="630" as="geometry" />
        </mxCell>
        <mxCell id="AoIM3a7iJawQwg-zqPbs-2" value="" style="rounded=0;whiteSpace=wrap;html=1;" vertex="1" parent="AoIM3a7iJawQwg-zqPbs-5">
          <mxGeometry x="-48.72" y="-60" width="348.72" height="690" as="geometry" />
        </mxCell>
        <mxCell id="AoIM3a7iJawQwg-zqPbs-3" value="preview menstrual cycle in calendar" style="ellipse;whiteSpace=wrap;html=1;" vertex="1" parent="AoIM3a7iJawQwg-zqPbs-5">
          <mxGeometry x="-9.743589743589745" y="210" width="112.05128205128206" height="60" as="geometry" />
        </mxCell>
        <mxCell id="AoIM3a7iJawQwg-zqPbs-6" value="remove marking" style="ellipse;whiteSpace=wrap;html=1;" vertex="1" parent="AoIM3a7iJawQwg-zqPbs-5">
          <mxGeometry x="146.1538461538462" y="170" width="112.05128205128206" height="60" as="geometry" />
        </mxCell>
        <mxCell id="AoIM3a7iJawQwg-zqPbs-7" value="add marking" style="ellipse;whiteSpace=wrap;html=1;" vertex="1" parent="AoIM3a7iJawQwg-zqPbs-5">
          <mxGeometry x="146.1538461538462" y="260" width="112.05128205128206" height="60" as="geometry" />
        </mxCell>
        <mxCell id="AoIM3a7iJawQwg-zqPbs-8" value="preview prediction of the next period" style="ellipse;whiteSpace=wrap;html=1;" vertex="1" parent="AoIM3a7iJawQwg-zqPbs-5">
          <mxGeometry x="-9.743589743589745" y="304" width="112.05128205128206" height="60" as="geometry" />
        </mxCell>
        <mxCell id="AoIM3a7iJawQwg-zqPbs-9" value="login" style="ellipse;whiteSpace=wrap;html=1;" vertex="1" parent="AoIM3a7iJawQwg-zqPbs-5">
          <mxGeometry x="-9.743589743589745" y="80" width="112.05128205128206" height="60" as="geometry" />
        </mxCell>
        <mxCell id="AoIM3a7iJawQwg-zqPbs-20" style="edgeStyle=orthogonalEdgeStyle;rounded=0;orthogonalLoop=1;jettySize=auto;html=1;entryX=1;entryY=0.5;entryDx=0;entryDy=0;dashed=1;endArrow=open;endFill=0;" edge="1" parent="AoIM3a7iJawQwg-zqPbs-5" source="AoIM3a7iJawQwg-zqPbs-10" target="AoIM3a7iJawQwg-zqPbs-9">
          <mxGeometry relative="1" as="geometry" />
        </mxCell>
        <mxCell id="AoIM3a7iJawQwg-zqPbs-10" value="log out" style="ellipse;whiteSpace=wrap;html=1;" vertex="1" parent="AoIM3a7iJawQwg-zqPbs-5">
          <mxGeometry x="146.1538461538462" y="80" width="112.05128205128206" height="60" as="geometry" />
        </mxCell>
        <mxCell id="AoIM3a7iJawQwg-zqPbs-11" value="preview cycle averages" style="ellipse;whiteSpace=wrap;html=1;" vertex="1" parent="AoIM3a7iJawQwg-zqPbs-5">
          <mxGeometry x="-9.743589743589745" y="470" width="112.05128205128206" height="60" as="geometry" />
        </mxCell>
        <mxCell id="AoIM3a7iJawQwg-zqPbs-12" value="change settings" style="ellipse;whiteSpace=wrap;html=1;" vertex="1" parent="AoIM3a7iJawQwg-zqPbs-5">
          <mxGeometry x="-9.743589743589745" y="550" width="112.05128205128206" height="60" as="geometry" />
        </mxCell>
        <mxCell id="AoIM3a7iJawQwg-zqPbs-13" value="read information about the app" style="ellipse;whiteSpace=wrap;html=1;" vertex="1" parent="AoIM3a7iJawQwg-zqPbs-5">
          <mxGeometry x="-9.743589743589745" y="390" width="112.05128205128206" height="60" as="geometry" />
        </mxCell>
        <mxCell id="AoIM3a7iJawQwg-zqPbs-15" value="create account" style="ellipse;whiteSpace=wrap;html=1;" vertex="1" parent="AoIM3a7iJawQwg-zqPbs-5">
          <mxGeometry x="-9.743589743589745" y="-10" width="112.05128205128206" height="60" as="geometry" />
        </mxCell>
        <mxCell id="AoIM3a7iJawQwg-zqPbs-19" style="edgeStyle=orthogonalEdgeStyle;rounded=0;orthogonalLoop=1;jettySize=auto;html=1;entryX=1;entryY=0.5;entryDx=0;entryDy=0;dashed=1;endArrow=open;endFill=0;" edge="1" parent="AoIM3a7iJawQwg-zqPbs-5" source="AoIM3a7iJawQwg-zqPbs-16" target="AoIM3a7iJawQwg-zqPbs-15">
          <mxGeometry relative="1" as="geometry" />
        </mxCell>
        <mxCell id="AoIM3a7iJawQwg-zqPbs-16" value="delete account" style="ellipse;whiteSpace=wrap;html=1;" vertex="1" parent="AoIM3a7iJawQwg-zqPbs-5">
          <mxGeometry x="146.1538461538462" y="-10" width="112.05128205128206" height="60" as="geometry" />
        </mxCell>
        <mxCell id="AoIM3a7iJawQwg-zqPbs-4" value="MenstrualApp" style="text;html=1;align=center;verticalAlign=middle;whiteSpace=wrap;rounded=0;" vertex="1" parent="AoIM3a7iJawQwg-zqPbs-5">
          <mxGeometry x="-29.230769230769234" y="-50" width="58.46153846153847" height="30" as="geometry" />
        </mxCell>
        <mxCell id="AoIM3a7iJawQwg-zqPbs-22" value="" style="endArrow=open;dashed=1;html=1;rounded=0;exitX=0;exitY=0.5;exitDx=0;exitDy=0;endFill=0;" edge="1" parent="AoIM3a7iJawQwg-zqPbs-5" source="AoIM3a7iJawQwg-zqPbs-6" target="AoIM3a7iJawQwg-zqPbs-3">
          <mxGeometry width="50" height="50" relative="1" as="geometry">
            <mxPoint x="90" y="260" as="sourcePoint" />
            <mxPoint x="-80" y="170" as="targetPoint" />
          </mxGeometry>
        </mxCell>
        <mxCell id="AoIM3a7iJawQwg-zqPbs-23" value="" style="endArrow=open;dashed=1;html=1;rounded=0;exitX=0;exitY=0.5;exitDx=0;exitDy=0;endFill=0;" edge="1" parent="AoIM3a7iJawQwg-zqPbs-5" source="AoIM3a7iJawQwg-zqPbs-7" target="AoIM3a7iJawQwg-zqPbs-3">
          <mxGeometry width="50" height="50" relative="1" as="geometry">
            <mxPoint x="156" y="210" as="sourcePoint" />
            <mxPoint x="101" y="232" as="targetPoint" />
          </mxGeometry>
        </mxCell>
        <mxCell id="AoIM3a7iJawQwg-zqPbs-24" value="&amp;lt;&amp;lt;extend&amp;gt;&amp;gt;" style="text;html=1;align=center;verticalAlign=middle;whiteSpace=wrap;rounded=0;" vertex="1" parent="AoIM3a7iJawQwg-zqPbs-5">
          <mxGeometry x="102.31" y="240" width="60" height="30" as="geometry" />
        </mxCell>
        <mxCell id="AoIM3a7iJawQwg-zqPbs-25" value="&amp;lt;&amp;lt;extend&amp;gt;&amp;gt;" style="text;html=1;align=center;verticalAlign=middle;whiteSpace=wrap;rounded=0;" vertex="1" parent="AoIM3a7iJawQwg-zqPbs-5">
          <mxGeometry x="80" y="180" width="60" height="30" as="geometry" />
        </mxCell>
        <mxCell id="AoIM3a7iJawQwg-zqPbs-26" value="&amp;lt;&amp;lt;extend&amp;gt;&amp;gt;" style="text;html=1;align=center;verticalAlign=middle;whiteSpace=wrap;rounded=0;" vertex="1" parent="AoIM3a7iJawQwg-zqPbs-5">
          <mxGeometry x="95.63999999999999" y="70" width="60" height="30" as="geometry" />
        </mxCell>
        <mxCell id="AoIM3a7iJawQwg-zqPbs-28" value="&amp;lt;&amp;lt;extend&amp;gt;&amp;gt;" style="text;html=1;align=center;verticalAlign=middle;whiteSpace=wrap;rounded=0;" vertex="1" parent="AoIM3a7iJawQwg-zqPbs-5">
          <mxGeometry x="95.63999999999999" y="-20" width="60" height="30" as="geometry" />
        </mxCell>
        <mxCell id="AoIM3a7iJawQwg-zqPbs-29" value="" style="endArrow=none;html=1;rounded=0;entryX=0;entryY=0.5;entryDx=0;entryDy=0;" edge="1" parent="1" target="AoIM3a7iJawQwg-zqPbs-15">
          <mxGeometry width="50" height="50" relative="1" as="geometry">
            <mxPoint x="130" y="340" as="sourcePoint" />
            <mxPoint x="370" y="360" as="targetPoint" />
          </mxGeometry>
        </mxCell>
        <mxCell id="AoIM3a7iJawQwg-zqPbs-30" value="" style="endArrow=none;html=1;rounded=0;entryX=0;entryY=0.5;entryDx=0;entryDy=0;" edge="1" parent="1" target="AoIM3a7iJawQwg-zqPbs-9">
          <mxGeometry width="50" height="50" relative="1" as="geometry">
            <mxPoint x="130" y="340" as="sourcePoint" />
            <mxPoint x="230" y="140" as="targetPoint" />
          </mxGeometry>
        </mxCell>
        <mxCell id="AoIM3a7iJawQwg-zqPbs-31" value="" style="endArrow=none;html=1;rounded=0;entryX=0;entryY=0.5;entryDx=0;entryDy=0;" edge="1" parent="1" target="AoIM3a7iJawQwg-zqPbs-3">
          <mxGeometry width="50" height="50" relative="1" as="geometry">
            <mxPoint x="130" y="350" as="sourcePoint" />
            <mxPoint x="240" y="150" as="targetPoint" />
          </mxGeometry>
        </mxCell>
        <mxCell id="AoIM3a7iJawQwg-zqPbs-32" value="" style="endArrow=none;html=1;rounded=0;entryX=0;entryY=0.5;entryDx=0;entryDy=0;" edge="1" parent="1" target="AoIM3a7iJawQwg-zqPbs-8">
          <mxGeometry width="50" height="50" relative="1" as="geometry">
            <mxPoint x="130" y="360" as="sourcePoint" />
            <mxPoint x="250" y="160" as="targetPoint" />
          </mxGeometry>
        </mxCell>
        <mxCell id="AoIM3a7iJawQwg-zqPbs-33" value="" style="endArrow=none;html=1;rounded=0;entryX=0;entryY=0.5;entryDx=0;entryDy=0;" edge="1" parent="1" target="AoIM3a7iJawQwg-zqPbs-13">
          <mxGeometry width="50" height="50" relative="1" as="geometry">
            <mxPoint x="130" y="360" as="sourcePoint" />
            <mxPoint x="260" y="170" as="targetPoint" />
          </mxGeometry>
        </mxCell>
        <mxCell id="AoIM3a7iJawQwg-zqPbs-34" value="" style="endArrow=none;html=1;rounded=0;entryX=0;entryY=0.5;entryDx=0;entryDy=0;" edge="1" parent="1" target="AoIM3a7iJawQwg-zqPbs-11">
          <mxGeometry width="50" height="50" relative="1" as="geometry">
            <mxPoint x="130" y="360" as="sourcePoint" />
            <mxPoint x="270" y="180" as="targetPoint" />
          </mxGeometry>
        </mxCell>
        <mxCell id="AoIM3a7iJawQwg-zqPbs-35" value="" style="endArrow=none;html=1;rounded=0;entryX=0;entryY=0.5;entryDx=0;entryDy=0;" edge="1" parent="1" target="AoIM3a7iJawQwg-zqPbs-12">
          <mxGeometry width="50" height="50" relative="1" as="geometry">
            <mxPoint x="130" y="360" as="sourcePoint" />
            <mxPoint x="280" y="190" as="targetPoint" />
          </mxGeometry>
        </mxCell>
      </root>
    </mxGraphModel>
  </diagram>
</mxfile>
